<svg width="711" height="711" viewBox="0 0 711 711" fill="none" xmlns="http://www.w3.org/2000/svg">
<path fill-rule="evenodd" clip-rule="evenodd" d="M110.199 238.585C117.638 231.146 130.109 232.788 135.369 241.899L196.027 346.962C198.885 351.912 198.885 358.011 196.027 362.962L135.04 468.595C129.78 477.706 117.309 479.347 109.87 471.908L4.68629 366.725C-1.5621 360.477 -1.56209 350.346 4.68629 344.098L110.199 238.585ZM166.225 221.186C151.97 221.186 144.832 203.952 154.911 193.873L344.098 4.68629C350.346 -1.5621 360.477 -1.5621 366.725 4.68629L555.911 193.873C565.991 203.952 558.852 221.186 544.598 221.186L441.589 221.186C435.872 221.186 430.59 218.137 427.732 213.186L368.973 111.411C362.814 100.745 347.418 100.745 341.26 111.411L282.5 213.186C279.642 218.137 274.36 221.186 268.644 221.186L166.225 221.186ZM575.079 241.524C580.339 232.413 592.81 230.771 600.249 238.21L706.136 344.098C712.385 350.346 712.385 360.477 706.136 366.725L600.579 472.283C593.139 479.722 580.669 478.08 575.408 468.969L514.205 362.961C511.347 358.011 511.347 351.912 514.205 346.961L575.079 241.524ZM545.497 488.736C559.752 488.736 566.891 505.971 556.811 516.05L366.725 706.136C360.477 712.385 350.346 712.385 344.098 706.136L154.011 516.05C143.932 505.971 151.071 488.736 165.325 488.736H268.643C274.359 488.736 279.642 491.786 282.5 496.736L341.259 598.511C347.418 609.178 362.814 609.178 368.972 598.511L427.732 496.736C430.59 491.786 435.872 488.736 441.588 488.736H545.497ZM76.9992 508.778C76.9992 494.523 94.2335 487.385 104.313 497.464L212.534 605.685C222.613 615.765 215.475 632.999 201.22 632.999H92.9992C84.1627 632.999 76.9992 625.835 76.9992 616.999V508.778ZM508.778 632.999C494.523 632.999 487.385 615.765 497.464 605.685L605.685 497.464C615.765 487.385 632.999 494.523 632.999 508.778V616.999C632.999 625.835 625.836 632.999 616.999 632.999H508.778ZM632.999 201.22C632.999 215.475 615.765 222.613 605.685 212.534L497.464 104.313C487.385 94.2333 494.523 76.9991 508.778 76.9991H616.999C625.836 76.9991 632.999 84.1625 632.999 92.9991V201.22ZM201.22 76.9991C215.475 76.9991 222.613 94.2333 212.534 104.313L104.313 212.534C94.2335 222.613 76.9992 215.475 76.9992 201.22V92.9991C76.9992 84.1625 84.1627 76.9991 92.9992 76.9991H201.22Z" fill="white"/>
</svg>
