<svg width="3286" height="1024" viewBox="0 0 3286 1024" fill="none" xmlns="http://www.w3.org/2000/svg">
  <style>
    @media (prefers-color-scheme: dark) {
      .light { display: none; }
      .dark { display: inline; }
    }
    @media (prefers-color-scheme: light) {
      .dark { display: none; }
      .light { display: inline; }
    }
  </style>
  <g class="light">
    <path fill-rule="evenodd" clip-rule="evenodd" d="M267.199 395.585C274.638 388.145 287.109 389.787 292.369 398.898L353.028 503.961C355.886 508.912 355.886 515.011 353.028 519.961L292.04 625.595C286.78 634.706 274.309 636.348 266.87 628.908L161.686 523.725C155.438 517.477 155.438 507.346 161.686 501.098L267.199 395.585ZM323.225 378.186C308.971 378.186 301.832 360.952 311.911 350.873L501.098 161.686C507.346 155.438 517.477 155.438 523.725 161.686L712.911 350.873C722.991 360.952 715.852 378.186 701.598 378.186L598.589 378.186C592.873 378.186 587.591 375.137 584.733 370.186L525.973 268.411C519.814 257.745 504.418 257.745 498.26 268.411L439.5 370.186C436.642 375.137 431.36 378.186 425.644 378.186H323.225ZM732.079 398.524C737.339 389.413 749.81 387.772 757.249 395.211L863.136 501.098C869.385 507.346 869.385 517.477 863.136 523.725L757.579 629.282C750.14 636.721 737.669 635.08 732.409 625.969L671.205 519.961C668.347 515.011 668.347 508.912 671.205 503.961L732.079 398.524ZM702.497 645.736C716.752 645.736 723.891 662.97 713.811 673.05L523.725 863.136C517.477 869.385 507.346 869.385 501.098 863.136L311.011 673.05C300.932 662.97 308.07 645.736 322.325 645.736H425.644C431.36 645.736 436.642 648.786 439.5 653.736L498.26 755.511C504.419 766.178 519.815 766.178 525.973 755.511L584.733 653.736C587.591 648.786 592.873 645.736 598.589 645.736H702.497ZM234 665.779C234 651.524 251.234 644.386 261.314 654.465L369.535 762.686C379.614 772.766 372.476 790 358.221 790H250C241.163 790 234 782.837 234 774V665.779ZM665.779 790C651.524 790 644.386 772.766 654.465 762.686L762.686 654.465C772.766 644.386 790 651.524 790 665.779V774C790 782.837 782.837 790 774 790H665.779ZM790 358.221C790 372.476 772.766 379.614 762.686 369.535L654.465 261.314C644.386 251.234 651.524 234 665.779 234H774C782.837 234 790 241.163 790 250V358.221ZM358.221 234C372.476 234 379.614 251.234 369.535 261.314L261.314 369.535C251.234 379.614 234 372.476 234 358.221V250C234 241.163 241.163 234 250 234H358.221Z" fill="#0A0A0A"/>
<g clip-path="url(#clip0_463_2)">
<path d="M931 406.225H1055.54V706.473C986.756 706.473 931 650.719 931 581.937V406.225Z" fill="#0A0A0A"/>
<path d="M1040.54 270H946.027C938.343 270 932.113 276.229 932.113 283.913V355.049C932.113 362.733 938.343 368.962 946.027 368.962H1040.54C1048.23 368.962 1054.46 362.733 1054.46 355.049V283.913C1054.46 276.229 1048.23 270 1040.54 270Z" fill="#6A61E0"/>
<path d="M1297.45 395.095C1369.72 395.095 1420.34 446.247 1420.34 522.418V706.458H1295.8V537.976C1295.8 512.957 1285.23 498.486 1266.89 498.486C1245.2 498.486 1232.4 514.601 1232.4 541.29V706.433H1107.86V406.226H1170.93C1186.99 406.226 1201.54 415.738 1207.99 430.461C1229.65 407.617 1260.23 395.095 1297.47 395.095H1297.45Z" fill="#0A0A0A"/>
<path d="M1454.28 556.919C1454.28 460.156 1523.8 396.229 1627.77 396.229C1719.53 396.229 1785.68 452.946 1793.47 538.578H1674.47C1670.57 518.568 1650.56 502.984 1627.77 502.984C1597.19 502.984 1577.73 523.551 1577.73 556.919C1577.73 590.287 1597.19 610.854 1627.77 610.854C1651.68 610.854 1672.24 594.157 1675.03 572.477H1794.59C1785.12 659.779 1718.41 717.61 1627.77 717.61C1523.8 717.61 1454.28 653.657 1454.28 556.919Z" fill="#0A0A0A"/>
<path d="M1826.25 574.702V406.225H1950.8V576.928C1950.8 598.051 1963.04 610.294 1981.38 610.294C1999.72 610.294 2011.97 598.051 2011.97 576.928V406.225H2136.51V574.702C2136.51 662.558 2074.23 717.603 1981.38 717.603C1888.54 717.603 1826.25 662.558 1826.25 574.702Z" fill="#0A0A0A"/>
<path d="M2375.07 395.095C2468.49 395.095 2531.86 459.603 2531.86 556.34C2531.86 653.077 2468.47 717.586 2375.07 717.586C2349.84 717.586 2326.7 711.438 2306.66 700.232V814.879C2239.42 814.879 2184.88 760.364 2184.88 693.098V406.226H2246.71C2262.31 406.226 2276.58 415.054 2283.51 429.044C2307.95 407.491 2339.5 395.095 2375.04 395.095H2375.07ZM2407.32 556.34C2407.32 522.973 2383.97 498.51 2352.27 498.51C2320.57 498.51 2297.22 522.973 2297.22 556.34C2297.22 589.707 2320.57 614.17 2352.27 614.17C2383.97 614.17 2407.32 589.707 2407.32 556.34Z" fill="#0A0A0A"/>
<path d="M2568.57 406.225H2693.12V706.473C2624.33 706.473 2568.57 650.719 2568.57 581.937V406.225Z" fill="#0A0A0A"/>
<path d="M2678.17 270H2583.66C2575.97 270 2569.74 276.229 2569.74 283.913V355.049C2569.74 362.733 2575.97 368.962 2583.66 368.962H2678.17C2685.86 368.962 2692.09 362.733 2692.09 355.049V283.913C2692.09 276.229 2685.86 270 2678.17 270Z" fill="#6A61E0"/>
<path d="M3073.48 582.495H2848.78C2855.46 611.688 2874.18 626.412 2902.21 626.412C2924.45 626.412 2943.35 618.063 2951.7 603.062H3069.03C3047.91 674.781 2983.95 717.61 2902.21 717.61C2802.13 717.61 2729.83 649.761 2729.83 555.806C2729.83 461.851 2801.55 395.116 2902.21 395.116C3002.88 395.116 3076.27 461.294 3076.27 551.91C3076.27 561.928 3075.15 571.921 3073.48 582.495ZM2849.82 525.221H2955.69C2949.55 500.05 2930.6 485.732 2902.24 485.732C2875.52 485.732 2857.26 498.886 2849.82 525.221Z" fill="#0A0A0A"/>
</g>
<defs>
<clipPath id="clip0_463_2">
<rect width="2145.28" height="544.9" fill="white" transform="translate(931 270)"/>
</clipPath>
</defs>
  </g>
  <g class="dark">
    <path fill-rule="evenodd" clip-rule="evenodd" d="M267.199 395.585C274.638 388.145 287.109 389.787 292.369 398.898L353.028 503.961C355.886 508.912 355.886 515.011 353.028 519.961L292.04 625.595C286.78 634.706 274.309 636.348 266.87 628.908L161.686 523.725C155.438 517.477 155.438 507.346 161.686 501.098L267.199 395.585ZM323.225 378.186C308.971 378.186 301.832 360.952 311.911 350.873L501.098 161.686C507.346 155.438 517.477 155.438 523.725 161.686L712.911 350.873C722.991 360.952 715.852 378.186 701.598 378.186L598.589 378.186C592.873 378.186 587.591 375.137 584.733 370.186L525.973 268.411C519.814 257.745 504.418 257.745 498.26 268.411L439.5 370.186C436.642 375.137 431.36 378.186 425.644 378.186H323.225ZM732.079 398.524C737.339 389.413 749.81 387.772 757.249 395.211L863.136 501.098C869.385 507.346 869.385 517.477 863.136 523.725L757.579 629.282C750.14 636.721 737.669 635.08 732.409 625.969L671.205 519.961C668.347 515.011 668.347 508.912 671.205 503.961L732.079 398.524ZM702.497 645.736C716.752 645.736 723.891 662.97 713.811 673.05L523.725 863.136C517.477 869.385 507.346 869.385 501.098 863.136L311.011 673.05C300.932 662.97 308.07 645.736 322.325 645.736H425.644C431.36 645.736 436.642 648.786 439.5 653.736L498.26 755.511C504.419 766.178 519.815 766.178 525.973 755.511L584.733 653.736C587.591 648.786 592.873 645.736 598.589 645.736H702.497ZM234 665.779C234 651.524 251.234 644.386 261.314 654.465L369.535 762.686C379.614 772.766 372.476 790 358.221 790H250C241.163 790 234 782.837 234 774V665.779ZM665.779 790C651.524 790 644.386 772.766 654.465 762.686L762.686 654.465C772.766 644.386 790 651.524 790 665.779V774C790 782.837 782.837 790 774 790H665.779ZM790 358.221C790 372.476 772.766 379.614 762.686 369.535L654.465 261.314C644.386 251.234 651.524 234 665.779 234H774C782.837 234 790 241.163 790 250V358.221ZM358.221 234C372.476 234 379.614 251.234 369.535 261.314L261.314 369.535C251.234 379.614 234 372.476 234 358.221V250C234 241.163 241.163 234 250 234H358.221Z" fill="white"/>
<g clip-path="url(#clip0_463_2)">
<path d="M931 406.225H1055.54V706.473C986.756 706.473 931 650.719 931 581.937V406.225Z" fill="white"/>
<path d="M1040.54 270H946.027C938.343 270 932.113 276.229 932.113 283.913V355.049C932.113 362.733 938.343 368.962 946.027 368.962H1040.54C1048.23 368.962 1054.46 362.733 1054.46 355.049V283.913C1054.46 276.229 1048.23 270 1040.54 270Z" fill="#6A61E0"/>
<path d="M1297.45 395.095C1369.72 395.095 1420.34 446.247 1420.34 522.418V706.458H1295.8V537.976C1295.8 512.957 1285.23 498.486 1266.89 498.486C1245.2 498.486 1232.4 514.601 1232.4 541.29V706.433H1107.86V406.226H1170.93C1186.99 406.226 1201.54 415.738 1207.99 430.461C1229.65 407.617 1260.23 395.095 1297.47 395.095H1297.45Z" fill="white"/>
<path d="M1454.28 556.919C1454.28 460.156 1523.8 396.229 1627.77 396.229C1719.53 396.229 1785.68 452.946 1793.47 538.578H1674.47C1670.57 518.568 1650.56 502.984 1627.77 502.984C1597.19 502.984 1577.73 523.551 1577.73 556.919C1577.73 590.287 1597.19 610.854 1627.77 610.854C1651.68 610.854 1672.24 594.157 1675.03 572.477H1794.59C1785.12 659.779 1718.41 717.61 1627.77 717.61C1523.8 717.61 1454.28 653.657 1454.28 556.919Z" fill="white"/>
<path d="M1826.25 574.702V406.225H1950.8V576.928C1950.8 598.051 1963.04 610.294 1981.38 610.294C1999.72 610.294 2011.97 598.051 2011.97 576.928V406.225H2136.51V574.702C2136.51 662.558 2074.23 717.603 1981.38 717.603C1888.54 717.603 1826.25 662.558 1826.25 574.702Z" fill="white"/>
<path d="M2375.07 395.095C2468.49 395.095 2531.86 459.603 2531.86 556.34C2531.86 653.077 2468.47 717.586 2375.07 717.586C2349.84 717.586 2326.7 711.438 2306.66 700.232V814.879C2239.42 814.879 2184.88 760.364 2184.88 693.098V406.226H2246.71C2262.31 406.226 2276.58 415.054 2283.51 429.044C2307.95 407.491 2339.5 395.095 2375.04 395.095H2375.07ZM2407.32 556.34C2407.32 522.973 2383.97 498.51 2352.27 498.51C2320.57 498.51 2297.22 522.973 2297.22 556.34C2297.22 589.707 2320.57 614.17 2352.27 614.17C2383.97 614.17 2407.32 589.707 2407.32 556.34Z" fill="white"/>
<path d="M2568.57 406.225H2693.12V706.473C2624.33 706.473 2568.57 650.719 2568.57 581.937V406.225Z" fill="white"/>
<path d="M2678.17 270H2583.66C2575.97 270 2569.74 276.229 2569.74 283.913V355.049C2569.74 362.733 2575.97 368.962 2583.66 368.962H2678.17C2685.86 368.962 2692.09 362.733 2692.09 355.049V283.913C2692.09 276.229 2685.86 270 2678.17 270Z" fill="#6A61E0"/>
<path d="M3073.48 582.495H2848.78C2855.46 611.688 2874.18 626.412 2902.21 626.412C2924.45 626.412 2943.35 618.063 2951.7 603.062H3069.03C3047.91 674.781 2983.95 717.61 2902.21 717.61C2802.13 717.61 2729.83 649.761 2729.83 555.806C2729.83 461.851 2801.55 395.116 2902.21 395.116C3002.88 395.116 3076.27 461.294 3076.27 551.91C3076.27 561.928 3075.15 571.921 3073.48 582.495ZM2849.82 525.221H2955.69C2949.55 500.05 2930.6 485.732 2902.24 485.732C2875.52 485.732 2857.26 498.886 2849.82 525.221Z" fill="white"/>
</g>
<defs>
<clipPath id="clip0_463_2">
<rect width="2145.28" height="544.9" fill="white" transform="translate(931 270)"/>
</clipPath>
</defs>
  </g>
</svg>
